STARTFONT 2.1
FONT -Adobe-Utopia-Bold-I-Normal--19-140-100-100-P-109-ISO8859-2
SIZE 14 100 100
FONTBOUNDINGBOX 28 23 -3 -5
STARTPROPERTIES 29
FOUNDRY "Adobe"
FAMILY_NAME "Utopia"
WEIGHT_NAME "Bold"
SLANT "I"
SETWIDTH_NAME "Normal"
ADD_STYLE_NAME ""
PIXEL_SIZE 19
POINT_SIZE 140
RESOLUTION_X 100
RESOLUTION_Y 100
SPACING "P"
AVERAGE_WIDTH 109
CHARSET_REGISTRY "ISO8859"
CHARSET_ENCODING "2"
CAP_HEIGHT 13
X_HEIGHT 10
RELATIVE_SETWIDTH 50
RELATIVE_WEIGHT 70
WEIGHT 208
FACE_NAME "Utopia Bold Italic"
COPYRIGHT "Copyright (c) 1989, 1991 Adobe Systems Incorporated.  All Rights Reserved., Copyright 1996 Cub Soft"
NOTICE "Utopia is a registered trademark of Adobe Systems Incorporated."
DESTINATION 0
FONT_ASCENT 18
FONT_DESCENT 5
DEFAULT_CHAR 32
_ADOBE_PSFONT "Utopia-BoldItalic"
_ADOBE_XFONT "-Adobe-Utopia-Bold-I-Normal--19-140-100-100-P-109-ISO8859-2"
_DEC_DEVICE_FONTNAMES "PS=Utopia-BoldItalic"
ENDPROPERTIES
CHARS 191
STARTCHAR space
ENCODING 32
SWIDTH 210 0
DWIDTH 4 0
BBX 0 0 0 0
BITMAP
ENDCHAR
STARTCHAR exclam
ENCODING 33
SWIDTH 285 0
DWIDTH 6 0
BBX 6 14 1 0
BITMAP
1c
1c
38
38
38
30
30
30
20
20
00
e0
f0
60
ENDCHAR
STARTCHAR quotedbl
ENCODING 34
SWIDTH 455 0
DWIDTH 9 0
BBX 7 6 3 8
BITMAP
66
ee
cc
cc
cc
88
ENDCHAR
STARTCHAR numbersign
ENCODING 35
SWIDTH 560 0
DWIDTH 11 0
BBX 11 13 1 0
BITMAP
0640
04c0
0c80
0880
7fe0
1900
1100
1300
ffc0
2200
2600
6400
4c00
ENDCHAR
STARTCHAR dollar
ENCODING 36
SWIDTH 560 0
DWIDTH 11 0
BBX 11 16 1 -2
BITMAP
0100
0f80
1ae0
3260
3200
3c00
1e00
1f80
07c0
0bc0
49c0
c9c0
eb80
3e00
1000
1000
ENDCHAR
STARTCHAR percent
ENCODING 37
SWIDTH 896 0
DWIDTH 17 0
BBX 14 14 3 -1
BITMAP
3808
67f0
4630
c660
c640
cc80
7978
03cc
068c
058c
0988
1198
30f0
2000
ENDCHAR
STARTCHAR ampersand
ENCODING 38
SWIDTH 752 0
DWIDTH 15 0
BBX 13 13 2 0
BITMAP
0780
08c0
18c0
1880
1918
1e30
1f30
6f20
e7a0
e3c0
e1e0
71f0
3e30
ENDCHAR
STARTCHAR apostrophe
ENCODING 39
SWIDTH 246 0
DWIDTH 5 0
BBX 4 6 2 8
BITMAP
70
70
70
60
40
80
ENDCHAR
STARTCHAR parenleft
ENCODING 40
SWIDTH 350 0
DWIDTH 7 0
BBX 7 16 2 -2
BITMAP
06
0c
18
30
30
60
60
60
c0
c0
c0
c0
c0
c0
40
60
ENDCHAR
STARTCHAR parenright
ENCODING 41
SWIDTH 350 0
DWIDTH 7 0
BBX 7 17 0 -3
BITMAP
08
0c
04
06
06
06
06
06
06
0c
0c
0c
18
18
30
60
c0
ENDCHAR
STARTCHAR asterisk
ENCODING 42
SWIDTH 500 0
DWIDTH 10 0
BBX 8 8 3 6
BITMAP
0c
49
6b
3c
7c
d6
10
10
ENDCHAR
STARTCHAR plus
ENCODING 43
SWIDTH 600 0
DWIDTH 12 0
BBX 10 10 2 0
BITMAP
0c00
0c00
0c00
0c00
ffc0
ffc0
0c00
0c00
0c00
0c00
ENDCHAR
STARTCHAR comma
ENCODING 44
SWIDTH 280 0
DWIDTH 5 0
BBX 4 7 1 -3
BITMAP
20
70
70
70
60
40
80
ENDCHAR
STARTCHAR minus
ENCODING 45
SWIDTH 600 0
DWIDTH 12 0
BBX 9 2 2 4
BITMAP
ff80
ff80
ENDCHAR
STARTCHAR period
ENCODING 46
SWIDTH 280 0
DWIDTH 5 0
BBX 3 3 2 0
BITMAP
60
e0
c0
ENDCHAR
STARTCHAR slash
ENCODING 47
SWIDTH 260 0
DWIDTH 5 0
BBX 8 14 0 0
BITMAP
03
06
06
0c
0c
0c
18
18
30
30
30
60
60
c0
ENDCHAR
STARTCHAR zero
ENCODING 48
SWIDTH 560 0
DWIDTH 11 0
BBX 10 13 2 0
BITMAP
0f00
1980
39c0
71c0
71c0
71c0
e1c0
e380
e380
e380
e700
6600
3c00
ENDCHAR
STARTCHAR one
ENCODING 49
SWIDTH 560 0
DWIDTH 11 0
BBX 8 13 2 0
BITMAP
03
1f
06
0e
0e
0e
0c
1c
1c
1c
1c
38
fe
ENDCHAR
STARTCHAR two
ENCODING 50
SWIDTH 560 0
DWIDTH 11 0
BBX 11 13 1 0
BITMAP
0f80
1cc0
38e0
38e0
00e0
01c0
0380
0700
0c00
3800
7040
ffc0
ff80
ENDCHAR
STARTCHAR three
ENCODING 51
SWIDTH 560 0
DWIDTH 11 0
BBX 11 13 1 0
BITMAP
0f80
1cc0
38e0
00e0
01c0
1f00
0180
01c0
01c0
61c0
e1c0
7380
3e00
ENDCHAR
STARTCHAR four
ENCODING 52
SWIDTH 560 0
DWIDTH 11 0
BBX 10 13 1 0
BITMAP
01c0
03c0
0380
0580
0b80
1380
3380
6300
ffc0
0700
0700
0600
1f80
ENDCHAR
STARTCHAR five
ENCODING 53
SWIDTH 560 0
DWIDTH 11 0
BBX 11 13 1 0
BITMAP
1fe0
1fc0
1000
1000
3000
2f00
3380
01c0
01c0
61c0
e180
7380
3e00
ENDCHAR
STARTCHAR six
ENCODING 54
SWIDTH 560 0
DWIDTH 11 0
BBX 10 13 2 0
BITMAP
0f00
1880
38c0
7080
6000
6f00
f380
e380
e380
e380
e300
6700
3c00
ENDCHAR
STARTCHAR seven
ENCODING 55
SWIDTH 560 0
DWIDTH 11 0
BBX 10 13 3 0
BITMAP
7fc0
7fc0
8180
0100
0200
0400
0c00
1800
3000
7000
7000
7000
6000
ENDCHAR
STARTCHAR eight
ENCODING 56
SWIDTH 560 0
DWIDTH 11 0
BBX 11 13 1 0
BITMAP
0f80
1cc0
38e0
38e0
38e0
19c0
1f00
7180
e1c0
e1c0
e1c0
6380
3e00
ENDCHAR
STARTCHAR nine
ENCODING 57
SWIDTH 560 0
DWIDTH 11 0
BBX 11 13 1 0
BITMAP
0f80
38c0
38c0
70e0
70e0
70e0
79e0
1ec0
01c0
41c0
e380
e700
3e00
ENDCHAR
STARTCHAR colon
ENCODING 58
SWIDTH 280 0
DWIDTH 5 0
BBX 5 10 1 0
BITMAP
30
38
78
10
00
00
40
f0
e0
60
ENDCHAR
STARTCHAR semicolon
ENCODING 59
SWIDTH 280 0
DWIDTH 5 0
BBX 5 12 1 -2
BITMAP
30
38
78
20
00
00
70
70
70
60
40
80
ENDCHAR
STARTCHAR less
ENCODING 60
SWIDTH 600 0
DWIDTH 12 0
BBX 9 10 2 0
BITMAP
0080
0380
0f80
3c00
f000
c000
7800
1e00
0780
0080
ENDCHAR
STARTCHAR equal
ENCODING 61
SWIDTH 600 0
DWIDTH 12 0
BBX 9 6 2 2
BITMAP
ff80
ff80
0000
0000
ff80
ff80
ENDCHAR
STARTCHAR greater
ENCODING 62
SWIDTH 600 0
DWIDTH 12 0
BBX 9 10 2 0
BITMAP
8000
e000
f800
1e00
0780
0180
0f00
3c00
f000
8000
ENDCHAR
STARTCHAR question
ENCODING 63
SWIDTH 454 0
DWIDTH 9 0
BBX 8 14 3 0
BITMAP
3c
e7
e7
cf
0e
3c
70
e0
e0
78
00
e0
f0
60
ENDCHAR
STARTCHAR at
ENCODING 64
SWIDTH 828 0
DWIDTH 16 0
BBX 15 14 2 0
BITMAP
03f0
0c18
3804
30fe
6332
4632
c672
ce62
cce4
cd64
6e78
7000
3810
07e0
ENDCHAR
STARTCHAR A
ENCODING 65
SWIDTH 634 0
DWIDTH 12 0
BBX 14 14 -1 0
BITMAP
0060
00e0
00e0
0170
0370
0270
0670
0470
0ff0
0870
1070
3070
2078
f8fc
ENDCHAR
STARTCHAR B
ENCODING 66
SWIDTH 680 0
DWIDTH 13 0
BBX 13 14 1 0
BITMAP
3fe0
0e30
0e38
1c38
1c38
1c70
1fc0
1cc0
3870
3870
3870
3870
78e0
ff80
ENDCHAR
STARTCHAR C
ENCODING 67
SWIDTH 672 0
DWIDTH 13 0
BBX 13 14 2 0
BITMAP
07e0
1c38
3810
7010
7000
7000
e000
e000
e000
e020
e020
6060
30c0
0f80
ENDCHAR
STARTCHAR D
ENCODING 68
SWIDTH 774 0
DWIDTH 15 0
BBX 15 14 1 0
BITMAP
1ff0
0e18
0e0c
0e0e
1c0e
1c0e
1c0e
1c0e
1c1c
381c
383c
3878
38f0
ff80
ENDCHAR
STARTCHAR E
ENCODING 69
SWIDTH 622 0
DWIDTH 12 0
BBX 13 14 1 0
BITMAP
3ff8
0e18
0e18
0c10
1c20
1c40
1fc0
1c40
3840
3810
3820
3820
7860
ffe0
ENDCHAR
STARTCHAR F
ENCODING 70
SWIDTH 585 0
DWIDTH 11 0
BBX 13 14 1 0
BITMAP
1ff8
0e18
0e10
0e10
1c00
1c20
1c60
1fc0
1c40
3840
3800
3800
3800
fc00
ENDCHAR
STARTCHAR G
ENCODING 71
SWIDTH 726 0
DWIDTH 14 0
BBX 13 14 2 0
BITMAP
07e0
1c38
3830
7010
7010
7000
e000
e000
e1f8
e0e0
e0e0
60e0
71e0
1f80
ENDCHAR
STARTCHAR H
ENCODING 72
SWIDTH 800 0
DWIDTH 16 0
BBX 17 14 1 0
BITMAP
1f9f80
0e0e00
0e0e00
0e0e00
0e0e00
1c1c00
1ffc00
1c1c00
1c1c00
383800
383800
383800
383800
fcfc00
ENDCHAR
STARTCHAR I
ENCODING 73
SWIDTH 386 0
DWIDTH 8 0
BBX 9 14 1 0
BITMAP
1f80
0e00
0e00
0e00
0e00
1c00
1c00
1c00
1c00
3800
3800
3800
3800
fc00
ENDCHAR
STARTCHAR J
ENCODING 74
SWIDTH 388 0
DWIDTH 8 0
BBX 10 16 0 -2
BITMAP
0fc0
0700
0700
0700
0700
0e00
0e00
0e00
0e00
0c00
1c00
1c00
1c00
3800
7800
e000
ENDCHAR
STARTCHAR K
ENCODING 75
SWIDTH 688 0
DWIDTH 13 0
BBX 16 14 1 0
BITMAP
3fbf
0e18
0e30
0e60
1cc0
1d80
1f80
1f80
3d80
39c0
39e0
38e0
78f0
fc38
ENDCHAR
STARTCHAR L
ENCODING 76
SWIDTH 586 0
DWIDTH 11 0
BBX 11 14 1 0
BITMAP
1f80
0e00
0e00
0e00
1c00
1c00
1c00
1c00
3800
3800
3820
3860
78c0
ffc0
ENDCHAR
STARTCHAR M
ENCODING 77
SWIDTH 921 0
DWIDTH 18 0
BBX 19 14 1 0
BITMAP
3e03e0
0e0780
0f0780
1f0f80
170b80
171300
171700
132700
23a700
23c700
23c600
238e00
638e00
f93f00
ENDCHAR
STARTCHAR N
ENCODING 78
SWIDTH 741 0
DWIDTH 14 0
BBX 16 14 1 0
BITMAP
1e1f
0f04
0f04
0f04
0b8c
1388
11c8
11c8
11c8
30f0
20f0
2070
2070
f870
ENDCHAR
STARTCHAR O
ENCODING 79
SWIDTH 761 0
DWIDTH 15 0
BBX 14 14 2 0
BITMAP
07e0
1e30
3c18
781c
701c
701c
f01c
e03c
e038
e038
e078
60f0
31e0
1f80
ENDCHAR
STARTCHAR P
ENCODING 80
SWIDTH 660 0
DWIDTH 13 0
BBX 13 14 1 0
BITMAP
3fe0
0e70
0e38
0e38
1c38
1c38
1c70
1cf0
3fc0
3800
3800
3800
7800
fc00
ENDCHAR
STARTCHAR Q
ENCODING 81
SWIDTH 761 0
DWIDTH 15 0
BBX 14 18 2 -4
BITMAP
07e0
1e30
3c18
781c
701c
701c
e01c
e03c
e038
e038
e078
60f0
31e0
1f80
0780
0780
03e0
00f0
ENDCHAR
STARTCHAR R
ENCODING 82
SWIDTH 681 0
DWIDTH 13 0
BBX 13 14 1 0
BITMAP
1fe0
0e30
0e38
0e38
1c38
1c70
1c60
1f80
1ce0
38e0
38e0
38e0
38e0
fc70
ENDCHAR
STARTCHAR S
ENCODING 83
SWIDTH 551 0
DWIDTH 11 0
BBX 11 14 1 0
BITMAP
0780
1ce0
1840
3840
3c00
3e00
1f00
0780
03c0
41c0
41c0
c180
6380
3e00
ENDCHAR
STARTCHAR T
ENCODING 84
SWIDTH 616 0
DWIDTH 12 0
BBX 13 14 2 0
BITMAP
7ff8
6710
4710
8710
0700
0e00
0e00
0e00
0e00
1c00
1c00
1c00
1c00
7f00
ENDCHAR
STARTCHAR U
ENCODING 85
SWIDTH 776 0
DWIDTH 15 0
BBX 15 14 3 0
BITMAP
fefe
3838
3838
7070
7070
7070
7070
60e0
e0e0
e0e0
e0e0
e1c0
7380
3f00
ENDCHAR
STARTCHAR V
ENCODING 86
SWIDTH 630 0
DWIDTH 12 0
BBX 13 14 3 0
BITMAP
fcf8
7020
7060
7040
30c0
3080
3980
3900
3a00
3a00
3c00
3c00
3800
3800
ENDCHAR
STARTCHAR W
ENCODING 87
SWIDTH 920 0
DWIDTH 18 0
BBX 19 14 2 0
BITMAP
fc01e0
3870c0
387080
38f180
38f100
397100
397200
397200
3a7400
3a7400
3c7c00
3c3800
383800
383000
ENDCHAR
STARTCHAR X
ENCODING 88
SWIDTH 630 0
DWIDTH 12 0
BBX 16 14 -1 0
BITMAP
1f9f
0f0c
0718
07b0
03e0
03c0
01c0
01c0
03e0
04e0
0ce0
1870
3070
fdfc
ENDCHAR
STARTCHAR Y
ENCODING 89
SWIDTH 622 0
DWIDTH 12 0
BBX 13 14 3 0
BITMAP
fcf8
7060
3840
38c0
3980
3900
1e00
1e00
1c00
1c00
1c00
3c00
3800
fe00
ENDCHAR
STARTCHAR Z
ENCODING 90
SWIDTH 618 0
DWIDTH 12 0
BBX 15 14 0 0
BITMAP
0ffe
0c3c
0878
10f0
00e0
01e0
03c0
0780
0f00
1e00
1c10
3830
7020
ffe0
ENDCHAR
STARTCHAR bracketleft
ENCODING 91
SWIDTH 350 0
DWIDTH 7 0
BBX 7 17 2 -3
BITMAP
1e
18
18
18
10
30
30
30
30
20
60
60
60
60
40
c0
f0
ENDCHAR
STARTCHAR backslash
ENCODING 92
SWIDTH 460 0
DWIDTH 9 0
BBX 6 14 3 0
BITMAP
c0
c0
60
60
60
30
30
30
30
18
18
18
0c
0c
ENDCHAR
STARTCHAR bracketright
ENCODING 93
SWIDTH 350 0
DWIDTH 7 0
BBX 7 17 0 -3
BITMAP
1e
06
04
0c
0c
0c
0c
08
18
18
18
18
10
30
30
30
f0
ENDCHAR
STARTCHAR asciicircum
ENCODING 94
SWIDTH 600 0
DWIDTH 12 0
BBX 9 9 2 4
BITMAP
1c00
1c00
1400
3600
3200
6300
6300
4100
c180
ENDCHAR
STARTCHAR underscore
ENCODING 95
SWIDTH 500 0
DWIDTH 10 0
BBX 10 1 0 -2
BITMAP
ffc0
ENDCHAR
STARTCHAR grave
ENCODING 96
SWIDTH 400 0
DWIDTH 8 0
BBX 5 4 3 10
BITMAP
c0
e0
30
08
ENDCHAR
STARTCHAR a
ENCODING 97
SWIDTH 596 0
DWIDTH 12 0
BBX 11 10 1 0
BITMAP
07e0
1cc0
39c0
71c0
71c0
e380
e5a0
eba0
fbc0
6180
ENDCHAR
STARTCHAR b
ENCODING 98
SWIDTH 586 0
DWIDTH 11 0
BBX 11 14 1 0
BITMAP
0c00
3c00
1c00
1800
39c0
3be0
34e0
38e0
78e0
71c0
71c0
7180
7300
9e00
ENDCHAR
STARTCHAR c
ENCODING 99
SWIDTH 456 0
DWIDTH 9 0
BBX 10 10 1 0
BITMAP
0780
19c0
31c0
7000
e000
e000
e080
e100
e200
3c00
ENDCHAR
STARTCHAR d
ENCODING 100
SWIDTH 609 0
DWIDTH 12 0
BBX 13 14 1 0
BITMAP
0018
00f8
0070
0070
07f0
1c60
38e0
70e0
71e0
e1c0
e2d0
e5d0
f9e0
70c0
ENDCHAR
STARTCHAR e
ENCODING 101
SWIDTH 476 0
DWIDTH 9 0
BBX 10 10 1 0
BITMAP
0f00
19c0
31c0
73c0
e780
fe00
e000
e180
e300
3c00
ENDCHAR
STARTCHAR f
ENCODING 102
SWIDTH 348 0
DWIDTH 7 0
BBX 13 18 -2 -4
BITMAP
00f0
01b8
0380
0380
0fe0
0700
0700
0700
0600
0600
0e00
0e00
0e00
0c00
0c00
5c00
d800
7000
ENDCHAR
STARTCHAR g
ENCODING 103
SWIDTH 522 0
DWIDTH 10 0
BBX 12 14 0 -4
BITMAP
0fb0
1cf0
38e0
38e0
18e0
19c0
0f80
3800
1f00
1f80
63c0
e1c0
e180
1e00
ENDCHAR
STARTCHAR h
ENCODING 104
SWIDTH 629 0
DWIDTH 12 0
BBX 13 14 1 0
BITMAP
0c00
3c00
1c00
1c00
18c0
3be0
3ae0
34e0
38c0
70c0
71c8
71d0
61e0
e0c0
ENDCHAR
STARTCHAR i
ENCODING 105
SWIDTH 339 0
DWIDTH 7 0
BBX 6 14 2 0
BITMAP
18
1c
18
00
18
f8
30
70
70
70
68
e8
f0
60
ENDCHAR
STARTCHAR j
ENCODING 106
SWIDTH 333 0
DWIDTH 6 0
BBX 9 19 -1 -4
BITMAP
0180
0380
0380
0000
0000
0300
0f00
0700
0700
0600
0600
0e00
0e00
0e00
0c00
0c00
1c00
d800
f000
ENDCHAR
STARTCHAR k
ENCODING 107
SWIDTH 570 0
DWIDTH 11 0
BBX 11 14 1 0
BITMAP
0c00
7c00
1c00
1800
3860
38e0
3920
3200
7600
7600
7600
6760
e3c0
e180
ENDCHAR
STARTCHAR l
ENCODING 108
SWIDTH 327 0
DWIDTH 6 0
BBX 6 14 2 0
BITMAP
0c
7c
18
38
38
38
30
70
70
60
e8
e8
f0
60
ENDCHAR
STARTCHAR m
ENCODING 109
SWIDTH 914 0
DWIDTH 18 0
BBX 17 10 1 0
BITMAP
0cc300
79ef80
3aeb80
3cd380
38e700
31c700
71c680
71ce80
638f00
e38600
ENDCHAR
STARTCHAR n
ENCODING 110
SWIDTH 635 0
DWIDTH 12 0
BBX 13 10 1 0
BITMAP
18c0
79e0
3ae0
34e0
38c0
70c0
71c8
71d0
61e0
e0c0
ENDCHAR
STARTCHAR o
ENCODING 111
SWIDTH 562 0
DWIDTH 11 0
BBX 11 10 1 0
BITMAP
0f80
38c0
78e0
70e0
f0e0
e1e0
e1c0
e3c0
6380
3e00
ENDCHAR
STARTCHAR p
ENCODING 112
SWIDTH 606 0
DWIDTH 12 0
BBX 12 14 1 -4
BITMAP
0c60
7df0
1a70
1a70
3c70
38e0
38e0
38c0
7180
7f00
7000
6000
e000
e000
ENDCHAR
STARTCHAR q
ENCODING 113
SWIDTH 584 0
DWIDTH 11 0
BBX 11 14 1 -4
BITMAP
07a0
1ce0
38c0
71c0
71c0
e3c0
e580
e780
fb80
6380
0300
0700
0700
0400
ENDCHAR
STARTCHAR r
ENCODING 114
SWIDTH 440 0
DWIDTH 9 0
BBX 8 10 2 0
BITMAP
33
f7
7b
70
70
70
f0
e0
e0
c0
ENDCHAR
STARTCHAR s
ENCODING 115
SWIDTH 417 0
DWIDTH 8 0
BBX 8 10 1 0
BITMAP
0e
13
33
38
1c
1e
0e
e6
64
38
ENDCHAR
STARTCHAR t
ENCODING 116
SWIDTH 359 0
DWIDTH 7 0
BBX 7 13 2 0
BITMAP
04
18
38
fe
30
70
70
70
60
e4
e8
f0
60
ENDCHAR
STARTCHAR u
ENCODING 117
SWIDTH 634 0
DWIDTH 12 0
BBX 11 10 2 0
BITMAP
1860
f8c0
31c0
71c0
71c0
7380
e5a0
eba0
fbc0
6180
ENDCHAR
STARTCHAR v
ENCODING 118
SWIDTH 518 0
DWIDTH 10 0
BBX 9 10 2 0
BITMAP
3880
f180
7180
7180
7100
6300
e200
e400
f800
6000
ENDCHAR
STARTCHAR w
ENCODING 119
SWIDTH 795 0
DWIDTH 15 0
BBX 15 10 2 0
BITMAP
38e6
f1c6
71c6
71c6
7384
638c
e788
eb90
f3e0
6180
ENDCHAR
STARTCHAR x
ENCODING 120
SWIDTH 516 0
DWIDTH 10 0
BBX 11 10 0 0
BITMAP
0c60
3ee0
0f00
0e00
0600
0700
0f20
5740
f3c0
4300
ENDCHAR
STARTCHAR y
ENCODING 121
SWIDTH 489 0
DWIDTH 10 0
BBX 11 14 0 -4
BITMAP
0820
7860
1c60
1c40
1cc0
0c80
0d80
0d00
0e00
0e00
0c00
4800
c800
f000
ENDCHAR
STARTCHAR z
ENCODING 122
SWIDTH 466 0
DWIDTH 9 0
BBX 11 10 0 0
BITMAP
1fe0
3fc0
2380
4700
0c00
1800
3080
3880
7f80
c700
ENDCHAR
STARTCHAR braceleft
ENCODING 123
SWIDTH 340 0
DWIDTH 7 0
BBX 6 17 3 -3
BITMAP
0c
18
30
30
30
30
20
60
c0
60
60
60
c0
c0
c0
c0
60
ENDCHAR
STARTCHAR bar
ENCODING 124
SWIDTH 265 0
DWIDTH 5 0
BBX 2 14 3 0
BITMAP
c0
c0
c0
c0
c0
c0
c0
c0
c0
c0
c0
c0
c0
c0
ENDCHAR
STARTCHAR braceright
ENCODING 125
SWIDTH 340 0
DWIDTH 7 0
BBX 7 17 0 -3
BITMAP
0c
06
06
04
0c
18
18
18
0c
10
10
30
30
30
30
60
c0
ENDCHAR
STARTCHAR asciitilde
ENCODING 126
SWIDTH 600 0
DWIDTH 12 0
BBX 10 4 2 3
BITMAP
1040
7f80
4f80
8000
ENDCHAR
STARTCHAR nobreakspace
ENCODING 160
SWIDTH 210 0
DWIDTH 4 0
BBX 0 0 0 0
BITMAP
ENDCHAR
STARTCHAR Aogonek
ENCODING 161
SWIDTH 634 0
DWIDTH 12 0
BBX 14 19 -1 -5
BITMAP
0060
00e0
00e0
0170
0370
0270
0670
0470
0ff0
0870
1070
3070
2078
f8fc
0180
0300
0600
0600
0380
ENDCHAR
STARTCHAR breve
ENCODING 162
SWIDTH 400 0
DWIDTH 8 0
BBX 6 3 3 11
BITMAP
84
fc
70
ENDCHAR
STARTCHAR Lstroke
ENCODING 163
SWIDTH 592 0
DWIDTH 12 0
BBX 11 14 1 0
BITMAP
1f80
0e00
0e00
0e00
1c80
1f00
1e00
1c00
3c00
7800
3820
3860
3860
ffc0
ENDCHAR
STARTCHAR currency
ENCODING 164
SWIDTH 560 0
DWIDTH 11 0
BBX 9 9 2 2
BITMAP
dd80
ff80
6300
c180
c180
c180
6300
ff80
dd80
ENDCHAR
STARTCHAR Lcaron
ENCODING 165
SWIDTH 720 0
DWIDTH 14 0
BBX 14 16 1 0
BITMAP
001c
001c
1f9c
0e18
0e10
0e20
1c00
1c00
1c00
1c00
3800
3800
3820
3860
78c0
ffc0
ENDCHAR
STARTCHAR Sacute
ENCODING 166
SWIDTH 551 0
DWIDTH 11 0
BBX 12 19 1 0
BITMAP
0030
0070
00c0
0100
0000
0780
1ce0
1840
3840
3c00
3e00
1f00
0780
03c0
41c0
41c0
c180
6380
3e00
ENDCHAR
STARTCHAR section
ENCODING 167
SWIDTH 568 0
DWIDTH 11 0
BBX 10 16 2 -2
BITMAP
0700
09c0
1880
3c00
5e00
4f00
c780
e1c0
70c0
7880
3c80
0f00
0600
c600
e400
7800
ENDCHAR
STARTCHAR diaeresis
ENCODING 168
SWIDTH 400 0
DWIDTH 8 0
BBX 8 3 3 11
BITMAP
66
e7
66
ENDCHAR
STARTCHAR Scaron
ENCODING 169
SWIDTH 551 0
DWIDTH 11 0
BBX 12 19 1 0
BITMAP
0410
0260
03c0
0180
0000
0780
1ce0
1840
3840
3c00
3e00
1f00
0780
03c0
41c0
41c0
c180
6380
3e00
ENDCHAR
STARTCHAR Scedilla
ENCODING 170
SWIDTH 551 0
DWIDTH 11 0
BBX 11 20 1 -6
BITMAP
0780
1ce0
1840
3840
3c00
3e00
1f00
0780
03c0
41c0
41c0
c180
6380
3e00
0200
0600
0700
0300
0300
0e00
ENDCHAR
STARTCHAR Tcaron
ENCODING 171
SWIDTH 616 0
DWIDTH 12 0
BBX 13 19 2 0
BITMAP
0410
0260
03c0
0180
0000
7ff8
6710
4710
8710
0700
0e00
0e00
0e00
0e00
1c00
1c00
1c00
1c00
7f00
ENDCHAR
STARTCHAR Zacute
ENCODING 172
SWIDTH 618 0
DWIDTH 12 0
BBX 15 19 0 0
BITMAP
000c
001c
0030
0040
0000
0ffe
0c3c
0878
10f0
00e0
01e0
03c0
0780
0f00
1e00
1c10
3830
7020
ffe0
ENDCHAR
STARTCHAR hyphen
ENCODING 173
SWIDTH 392 0
DWIDTH 8 0
BBX 6 2 2 4
BITMAP
fc
fc
ENDCHAR
STARTCHAR Zcaron
ENCODING 174
SWIDTH 618 0
DWIDTH 12 0
BBX 15 19 0 0
BITMAP
0104
0098
00f0
0060
0000
0ffe
0c3c
0878
10f0
00e0
01e0
03c0
0780
0f00
1e00
1c10
3830
7020
ffe0
ENDCHAR
STARTCHAR Zabovedot
ENCODING 175
SWIDTH 618 0
DWIDTH 12 0
BBX 15 18 0 0
BITMAP
00e0
00e0
00e0
0000
0ffe
0c3c
0878
10f0
00e0
01e0
03c0
0780
0f00
1e00
1c10
3830
7020
ffe0
ENDCHAR
STARTCHAR degree
ENCODING 176
SWIDTH 375 0
DWIDTH 7 0
BBX 6 6 3 7
BITMAP
78
cc
84
84
cc
78
ENDCHAR
STARTCHAR aogonek
ENCODING 177
SWIDTH 596 0
DWIDTH 12 0
BBX 11 15 1 -5
BITMAP
07e0
1cc0
39c0
71c0
71c0
e380
e5a0
eba0
fbc0
6180
0300
0600
0c00
0c00
0700
ENDCHAR
STARTCHAR ogonek
ENCODING 178
SWIDTH 350 0
DWIDTH 7 0
BBX 4 5 1 -5
BITMAP
30
60
c0
c0
70
ENDCHAR
STARTCHAR lstroke
ENCODING 179
SWIDTH 339 0
DWIDTH 7 0
BBX 8 14 1 0
BITMAP
06
3e
0c
1c
1c
1f
1c
38
78
b0
74
74
78
30
ENDCHAR
STARTCHAR acute
ENCODING 180
SWIDTH 400 0
DWIDTH 8 0
BBX 5 4 4 10
BITMAP
18
38
60
80
ENDCHAR
STARTCHAR lcaron
ENCODING 181
SWIDTH 565 0
DWIDTH 11 0
BBX 11 16 2 0
BITMAP
00e0
00e0
0ce0
7cc0
1880
3900
3800
3800
3000
7000
7000
6000
e800
e800
f000
6000
ENDCHAR
STARTCHAR sacute
ENCODING 182
SWIDTH 417 0
DWIDTH 8 0
BBX 10 15 1 0
BITMAP
00c0
01c0
0300
0400
0000
0e00
1300
3300
3800
1c00
1e00
0e00
e600
6400
3800
ENDCHAR
STARTCHAR caron
ENCODING 183
SWIDTH 400 0
DWIDTH 8 0
BBX 7 4 3 10
BITMAP
82
4c
78
30
ENDCHAR
STARTCHAR cedilla
ENCODING 184
SWIDTH 400 0
DWIDTH 8 0
BBX 4 6 2 -5
BITMAP
20
60
70
30
30
e0
ENDCHAR
STARTCHAR scaron
ENCODING 185
SWIDTH 417 0
DWIDTH 8 0
BBX 10 15 1 0
BITMAP
1040
0980
0f00
0600
0000
0e00
1300
3300
3800
1c00
1e00
0e00
e600
6400
3800
ENDCHAR
STARTCHAR scedilla
ENCODING 186
SWIDTH 417 0
DWIDTH 8 0
BBX 8 16 1 -6
BITMAP
0e
13
33
38
1c
1e
0e
e6
64
38
08
18
1c
0c
0c
38
ENDCHAR
STARTCHAR tcaron
ENCODING 187
SWIDTH 565 0
DWIDTH 11 0
BBX 11 17 2 0
BITMAP
00e0
00e0
00e0
00c0
0480
1900
3800
fe00
3000
7000
7000
7000
6000
e400
e800
f000
6000
ENDCHAR
STARTCHAR zacute
ENCODING 188
SWIDTH 466 0
DWIDTH 9 0
BBX 11 15 0 0
BITMAP
0060
00e0
0180
0200
0000
1fe0
3fc0
2380
4700
0c00
1800
3080
3880
7f80
c700
ENDCHAR
STARTCHAR doubleacute
ENCODING 189
SWIDTH 400 0
DWIDTH 8 0
BBX 6 4 4 11
BITMAP
6c
6c
c8
90
ENDCHAR
STARTCHAR zcaron
ENCODING 190
SWIDTH 466 0
DWIDTH 9 0
BBX 11 15 0 0
BITMAP
0820
04c0
0780
0300
0000
1fe0
3fc0
2380
4700
0c00
1800
3080
3880
7f80
c700
ENDCHAR
STARTCHAR zabovedot
ENCODING 191
SWIDTH 466 0
DWIDTH 9 0
BBX 11 14 0 0
BITMAP
0700
0700
0700
0000
1fe0
3fc0
2380
4700
0c00
1800
3080
3880
7f80
c700
ENDCHAR
STARTCHAR Racute
ENCODING 192
SWIDTH 681 0
DWIDTH 13 0
BBX 13 19 1 0
BITMAP
0018
0038
0060
0080
0000
1fe0
0e30
0e38
0e38
1c38
1c70
1c60
1f80
1ce0
38e0
38e0
38e0
38e0
fc70
ENDCHAR
STARTCHAR Aacute
ENCODING 193
SWIDTH 634 0
DWIDTH 12 0
BBX 14 18 -1 0
BITMAP
0018
003c
0070
0080
0060
00e0
00e0
0170
0370
0270
0670
0470
0ff0
0870
1070
3070
2078
f8fc
ENDCHAR
STARTCHAR Acircumflex
ENCODING 194
SWIDTH 634 0
DWIDTH 12 0
BBX 14 18 -1 0
BITMAP
0020
00f0
038c
0000
0060
00e0
00e0
0170
0370
0270
0670
0470
0ff0
0870
1070
3070
2078
f8fc
ENDCHAR
STARTCHAR Abreve
ENCODING 195
SWIDTH 634 0
DWIDTH 12 0
BBX 14 18 -1 0
BITMAP
0108
01f8
00e0
0000
0060
00e0
00e0
0170
0370
0270
0670
0470
0ff0
0870
1070
3070
2078
f8fc
ENDCHAR
STARTCHAR Adiaeresis
ENCODING 196
SWIDTH 634 0
DWIDTH 12 0
BBX 13 17 0 0
BITMAP
0738
0738
0738
00e0
00e0
01e0
03e0
02e0
04e0
04e0
08e0
0ff0
1070
1070
2070
6070
f0f8
ENDCHAR
STARTCHAR Lacute
ENCODING 197
SWIDTH 586 0
DWIDTH 11 0
BBX 11 19 1 0
BITMAP
0060
00e0
0180
0200
0000
1f80
0e00
0e00
0e00
1c00
1c00
1c00
1c00
3800
3800
3820
3860
78c0
ffc0
ENDCHAR
STARTCHAR Cacute
ENCODING 198
SWIDTH 672 0
DWIDTH 13 0
BBX 13 19 2 0
BITMAP
0030
0070
00c0
0100
0000
07e0
1c38
3810
7010
7000
7000
e000
e000
e000
e020
e020
6060
30c0
0f80
ENDCHAR
STARTCHAR Ccedilla
ENCODING 199
SWIDTH 672 0
DWIDTH 13 0
BBX 13 19 2 -5
BITMAP
03e0
1e38
3c10
7810
7000
7000
e000
e000
e000
e020
e020
7060
38c0
0f80
0400
0f00
0300
0300
1e00
ENDCHAR
STARTCHAR Ccaron
ENCODING 200
SWIDTH 672 0
DWIDTH 13 0
BBX 13 19 2 0
BITMAP
0410
0260
03c0
0180
0000
07e0
1c38
3810
7010
7000
7000
e000
e000
e000
e020
e020
6060
30c0
0f80
ENDCHAR
STARTCHAR Eacute
ENCODING 201
SWIDTH 622 0
DWIDTH 12 0
BBX 13 18 1 0
BITMAP
0030
0070
01c0
0200
3ff8
0e18
0e18
0c10
1c20
1c40
1fc0
1c40
3840
3810
3820
3820
7860
ffe0
ENDCHAR
STARTCHAR Eogonek
ENCODING 202
SWIDTH 622 0
DWIDTH 12 0
BBX 13 19 1 -5
BITMAP
3ff8
0e18
0e18
0c10
1c20
1c40
1fc0
1c40
3840
3810
3820
3820
7860
ffe0
0180
0300
0600
0600
0380
ENDCHAR
STARTCHAR Ediaeresis
ENCODING 203
SWIDTH 622 0
DWIDTH 12 0
BBX 14 17 0 0
BITMAP
0738
0738
0738
1ffc
0608
0e08
0e08
0e20
0e20
0fe0
1c60
1c20
1c00
1c10
3830
3860
ffe0
ENDCHAR
STARTCHAR Ecaron
ENCODING 204
SWIDTH 622 0
DWIDTH 12 0
BBX 13 19 1 0
BITMAP
0410
0260
03c0
0180
0000
3ff8
0e18
0e18
0c10
1c20
1c40
1fc0
1c40
3840
3810
3820
3820
7860
ffe0
ENDCHAR
STARTCHAR Iacute
ENCODING 205
SWIDTH 386 0
DWIDTH 8 0
BBX 10 18 1 0
BITMAP
00c0
03c0
0700
0800
1f80
0e00
0e00
0e00
0e00
1e00
1c00
1c00
1c00
1c00
3800
3800
3800
fc00
ENDCHAR
STARTCHAR Icircumflex
ENCODING 206
SWIDTH 386 0
DWIDTH 8 0
BBX 10 18 1 0
BITMAP
0300
0f80
38c0
0000
1f80
0e00
0e00
0e00
0e00
1c00
1c00
1c00
1c00
1c00
3800
3800
3800
fc00
ENDCHAR
STARTCHAR Dcaron
ENCODING 207
SWIDTH 774 0
DWIDTH 15 0
BBX 15 19 1 0
BITMAP
0208
0130
01e0
00c0
0000
1ff0
0e18
0e0c
0e0e
1c0e
1c0e
1c0e
1c0e
1c1c
381c
383c
3878
38f0
ff80
ENDCHAR
STARTCHAR Dstroke
ENCODING 208
SWIDTH 780 0
DWIDTH 15 0
BBX 15 14 1 0
BITMAP
1ff0
0e18
0e0c
0e0e
1c0e
1c0e
7f8e
1c0e
181c
381c
383c
3878
38f0
ff80
ENDCHAR
STARTCHAR Nacute
ENCODING 209
SWIDTH 741 0
DWIDTH 14 0
BBX 16 19 1 0
BITMAP
000c
001c
0030
0040
0000
1e1f
0f04
0f04
0f04
0b8c
1388
11c8
11c8
11c8
30f0
20f0
2070
2070
f870
ENDCHAR
STARTCHAR Ncaron
ENCODING 210
SWIDTH 741 0
DWIDTH 14 0
BBX 16 19 1 0
BITMAP
0104
0098
00f0
0060
0000
1e1f
0f04
0f04
0f04
0b8c
1388
11c8
11c8
11c8
30f0
20f0
2070
2070
f870
ENDCHAR
STARTCHAR Oacute
ENCODING 211
SWIDTH 761 0
DWIDTH 15 0
BBX 14 18 2 0
BITMAP
0010
0070
01e0
0300
07e0
1e30
3c18
781c
701c
701c
f01c
e03c
e038
e038
e078
60f0
31e0
1f80
ENDCHAR
STARTCHAR Ocircumflex
ENCODING 212
SWIDTH 761 0
DWIDTH 15 0
BBX 14 18 2 0
BITMAP
00c0
01e0
0730
0808
07e0
1e30
3c18
781c
701c
701c
f01c
e03c
e038
e038
e078
60f0
31e0
1f80
ENDCHAR
STARTCHAR Odoubleacute
ENCODING 213
SWIDTH 761 0
DWIDTH 15 0
BBX 14 19 2 0
BITMAP
01b0
01b0
0320
0240
0000
07e0
1e30
3c18
781c
701c
701c
f01c
e03c
e038
e038
e078
60f0
31e0
1f80
ENDCHAR
STARTCHAR Odiaeresis
ENCODING 214
SWIDTH 761 0
DWIDTH 15 0
BBX 14 17 2 0
BITMAP
0770
0770
0770
07e0
1e30
3c18
781c
701c
701c
f01c
e03c
e038
e038
e078
60f0
31e0
1f80
ENDCHAR
STARTCHAR multiply
ENCODING 215
SWIDTH 600 0
DWIDTH 12 0
BBX 9 9 3 0
BITMAP
4100
e380
7700
3e00
1c00
3e00
7700
e380
4100
ENDCHAR
STARTCHAR Rcaron
ENCODING 216
SWIDTH 681 0
DWIDTH 13 0
BBX 13 19 1 0
BITMAP
0208
0130
01e0
00c0
0000
1fe0
0e30
0e38
0e38
1c38
1c70
1c60
1f80
1ce0
38e0
38e0
38e0
38e0
fc70
ENDCHAR
STARTCHAR Uring
ENCODING 217
SWIDTH 776 0
DWIDTH 15 0
BBX 15 20 3 0
BITMAP
0380
0440
0440
0440
0380
0000
fefe
3838
3838
7070
7070
7070
7070
60e0
e0e0
e0e0
e0e0
e1c0
7380
3f00
ENDCHAR
STARTCHAR Uacute
ENCODING 218
SWIDTH 776 0
DWIDTH 15 0
BBX 15 18 3 0
BITMAP
0018
0078
00e0
0100
fefe
3838
3838
7070
7070
7070
7070
60e0
e0e0
e0e0
e0e0
e1c0
7380
3f00
ENDCHAR
STARTCHAR Udoubleacute
ENCODING 219
SWIDTH 776 0
DWIDTH 15 0
BBX 15 19 3 0
BITMAP
01b0
01b0
0320
0240
0000
fefe
3838
3838
7070
7070
7070
7070
60e0
e0e0
e0e0
e0e0
e1c0
7380
3f00
ENDCHAR
STARTCHAR Udiaeresis
ENCODING 220
SWIDTH 776 0
DWIDTH 15 0
BBX 15 17 3 0
BITMAP
0e70
0e70
0e70
fe7e
3838
3838
7838
7030
7070
7070
7070
e060
e0e0
e0e0
e1c0
71c0
3f00
ENDCHAR
STARTCHAR Yacute
ENCODING 221
SWIDTH 622 0
DWIDTH 12 0
BBX 13 18 3 0
BITMAP
0030
00f0
01c0
0200
fcf8
7060
3840
38c0
3980
3900
1e00
1e00
1c00
1c00
1c00
3c00
3800
fe00
ENDCHAR
STARTCHAR Tcedilla
ENCODING 222
SWIDTH 616 0
DWIDTH 12 0
BBX 13 20 2 -6
BITMAP
7ff8
6710
4710
8710
0700
0e00
0e00
0e00
0e00
1c00
1c00
1c00
1c00
7f00
0100
0300
0380
0180
0180
0700
ENDCHAR
STARTCHAR ssharp
ENCODING 223
SWIDTH 628 0
DWIDTH 12 0
BBX 15 18 -1 -4
BITMAP
007c
01c6
0386
038e
1f1c
0730
0770
0670
0e70
0e38
0e38
0c18
0d90
1ce0
1c00
9800
d800
f000
ENDCHAR
STARTCHAR racute
ENCODING 224
SWIDTH 440 0
DWIDTH 9 0
BBX 9 15 2 0
BITMAP
0180
0380
0600
0800
0000
3300
f700
7b00
7000
7000
7000
f000
e000
e000
c000
ENDCHAR
STARTCHAR aacute
ENCODING 225
SWIDTH 596 0
DWIDTH 12 0
BBX 11 15 1 0
BITMAP
0040
00e0
01c0
0300
0400
07e0
1cc0
39c0
71c0
71c0
e380
e5a0
eba0
fbc0
6180
ENDCHAR
STARTCHAR acircumflex
ENCODING 226
SWIDTH 596 0
DWIDTH 12 0
BBX 11 14 1 0
BITMAP
0100
0380
04c0
1860
07e0
1cc0
39c0
71c0
71c0
e380
e5a0
eba0
fbc0
6180
ENDCHAR
STARTCHAR abreve
ENCODING 227
SWIDTH 596 0
DWIDTH 12 0
BBX 11 14 1 0
BITMAP
0420
07e0
0380
0000
07e0
1cc0
39c0
71c0
71c0
e380
e5a0
eba0
fbc0
6180
ENDCHAR
STARTCHAR adiaeresis
ENCODING 228
SWIDTH 596 0
DWIDTH 12 0
BBX 11 14 1 0
BITMAP
0ee0
0ee0
0ee0
0000
07e0
1cc0
39c0
71c0
71c0
e380
e5a0
eba0
fbc0
6180
ENDCHAR
STARTCHAR lacute
ENCODING 229
SWIDTH 327 0
DWIDTH 6 0
BBX 8 19 2 0
BITMAP
03
07
0c
10
00
0c
7c
18
38
38
38
30
70
70
60
e8
e8
f0
60
ENDCHAR
STARTCHAR cacute
ENCODING 230
SWIDTH 456 0
DWIDTH 9 0
BBX 11 15 1 0
BITMAP
0060
00e0
0180
0200
0000
0780
19c0
31c0
7000
e000
e000
e080
e100
e200
3c00
ENDCHAR
STARTCHAR ccedilla
ENCODING 231
SWIDTH 456 0
DWIDTH 9 0
BBX 10 15 1 -5
BITMAP
0780
19c0
31c0
7000
e000
e000
e100
e200
e600
3800
3000
3800
1800
1800
7000
ENDCHAR
STARTCHAR ccaron
ENCODING 232
SWIDTH 456 0
DWIDTH 9 0
BBX 11 15 1 0
BITMAP
0820
04c0
0780
0300
0000
0780
19c0
31c0
7000
e000
e000
e080
e100
e200
3c00
ENDCHAR
STARTCHAR eacute
ENCODING 233
SWIDTH 476 0
DWIDTH 9 0
BBX 11 15 1 0
BITMAP
0040
00e0
01c0
0700
0400
0f00
19c0
31c0
73c0
e780
fe00
e000
e180
e300
3c00
ENDCHAR
STARTCHAR eogonek
ENCODING 234
SWIDTH 476 0
DWIDTH 9 0
BBX 10 15 1 -5
BITMAP
0f00
19c0
31c0
73c0
e780
fe00
e000
e180
e300
3c00
0600
0c00
1800
1800
0e00
ENDCHAR
STARTCHAR ediaeresis
ENCODING 235
SWIDTH 476 0
DWIDTH 9 0
BBX 10 14 1 0
BITMAP
1dc0
1dc0
1dc0
0000
0f00
19c0
31c0
73c0
e780
fe00
e000
e180
e300
3c00
ENDCHAR
STARTCHAR ecaron
ENCODING 236
SWIDTH 476 0
DWIDTH 9 0
BBX 11 15 1 0
BITMAP
0820
04c0
0780
0300
0000
0f00
19c0
31c0
73c0
e780
fe00
e000
e180
e300
3c00
ENDCHAR
STARTCHAR iacute
ENCODING 237
SWIDTH 339 0
DWIDTH 7 0
BBX 7 15 2 0
BITMAP
04
0e
1c
30
60
18
f8
30
70
70
70
68
e8
f0
60
ENDCHAR
STARTCHAR icircumflex
ENCODING 238
SWIDTH 339 0
DWIDTH 7 0
BBX 7 14 2 0
BITMAP
18
38
44
82
18
f8
30
70
70
70
68
e8
f0
60
ENDCHAR
STARTCHAR dcaron
ENCODING 239
SWIDTH 874 0
DWIDTH 17 0
BBX 18 16 1 0
BITMAP
0001c0
0001c0
0019c0
00f980
007100
007200
07f000
1c6000
38e000
70e000
71e000
e1c000
e2d000
e5d000
f9e000
70c000
ENDCHAR
STARTCHAR dstroke
ENCODING 240
SWIDTH 822 0
DWIDTH 16 0
BBX 17 14 1 0
BITMAP
001800
003800
07ff80
007000
07f000
1c6000
38e000
70e000
71e000
e1c000
e2d000
e5d000
f9e000
70c000
ENDCHAR
STARTCHAR nacute
ENCODING 241
SWIDTH 635 0
DWIDTH 12 0
BBX 13 15 1 0
BITMAP
0060
00e0
0180
0200
0000
18c0
79e0
3ae0
34e0
38c0
70c0
71c8
71d0
61e0
e0c0
ENDCHAR
STARTCHAR ncaron
ENCODING 242
SWIDTH 635 0
DWIDTH 12 0
BBX 13 15 1 0
BITMAP
0820
04c0
0780
0300
0000
18c0
79e0
3ae0
34e0
38c0
70c0
71c8
71d0
61e0
e0c0
ENDCHAR
STARTCHAR oacute
ENCODING 243
SWIDTH 562 0
DWIDTH 11 0
BBX 11 15 1 0
BITMAP
0040
00e0
01c0
0300
0400
0f80
38c0
78e0
70e0
f0e0
e1e0
e1c0
e3c0
6380
3e00
ENDCHAR
STARTCHAR ocircumflex
ENCODING 244
SWIDTH 562 0
DWIDTH 11 0
BBX 11 14 1 0
BITMAP
0300
0780
1cc0
2060
0f80
38c0
78e0
70e0
f0e0
e1e0
e1c0
e3c0
6380
3e00
ENDCHAR
STARTCHAR odoubleacute
ENCODING 245
SWIDTH 562 0
DWIDTH 11 0
BBX 11 15 1 0
BITMAP
0360
0360
0640
0480
0000
0f80
38c0
78e0
70e0
f0e0
e1e0
e1c0
e3c0
6380
3e00
ENDCHAR
STARTCHAR odiaeresis
ENCODING 246
SWIDTH 562 0
DWIDTH 11 0
BBX 11 14 1 0
BITMAP
1ce0
1ce0
1ce0
0000
0f80
38c0
78e0
70e0
f0e0
e1e0
e1c0
e3c0
6380
3e00
ENDCHAR
STARTCHAR division
ENCODING 247
SWIDTH 600 0
DWIDTH 12 0
BBX 9 10 2 0
BITMAP
0800
1c00
0800
0000
ff80
ff80
0000
0800
1c00
0800
ENDCHAR
STARTCHAR rcaron
ENCODING 248
SWIDTH 440 0
DWIDTH 9 0
BBX 9 15 2 0
BITMAP
2080
1300
1e00
0c00
0000
3300
f700
7b00
7000
7000
7000
f000
e000
e000
c000
ENDCHAR
STARTCHAR uring
ENCODING 249
SWIDTH 634 0
DWIDTH 12 0
BBX 11 16 2 0
BITMAP
0e00
1100
1100
1100
0e00
0000
1860
f8c0
31c0
71c0
71c0
7380
e5a0
eba0
fbc0
6180
ENDCHAR
STARTCHAR uacute
ENCODING 250
SWIDTH 634 0
DWIDTH 12 0
BBX 11 15 2 0
BITMAP
0020
00e0
01c0
0380
0200
1860
f8c0
31c0
71c0
71c0
7380
e5a0
eba0
fbc0
6180
ENDCHAR
STARTCHAR udoubleacute
ENCODING 251
SWIDTH 634 0
DWIDTH 12 0
BBX 11 15 2 0
BITMAP
06c0
06c0
0c80
0900
0000
1860
f8c0
31c0
71c0
71c0
7380
e5a0
eba0
fbc0
6180
ENDCHAR
STARTCHAR udiaeresis
ENCODING 252
SWIDTH 634 0
DWIDTH 12 0
BBX 11 14 2 0
BITMAP
1ce0
1ce0
1ce0
0000
1860
f8c0
31c0
71c0
71c0
7380
e5a0
eba0
fbc0
6180
ENDCHAR
STARTCHAR yacute
ENCODING 253
SWIDTH 489 0
DWIDTH 10 0
BBX 11 19 0 -4
BITMAP
0020
0060
00c0
0380
0200
0820
7860
1c60
1c40
1cc0
0c80
0d80
0d00
0e00
0e00
0c00
4800
c800
f000
ENDCHAR
STARTCHAR tcedilla
ENCODING 254
SWIDTH 359 0
DWIDTH 7 0
BBX 7 19 2 -6
BITMAP
04
18
38
fe
30
70
70
70
60
e4
e8
f0
60
08
18
1c
0c
0c
38
ENDCHAR
STARTCHAR abovedot
ENCODING 255
SWIDTH 402 0
DWIDTH 8 0
BBX 3 3 5 11
BITMAP
e0
e0
e0
ENDCHAR
ENDFONT
